<mxfile host="Electron" modified="2023-07-28T03:07:40.836Z" agent="Mozilla/5.0 (Macintosh; Intel Mac OS X 10_15_7) AppleWebKit/537.36 (KHTML, like Gecko) draw.io/21.5.1 Chrome/112.0.5615.204 Electron/24.6.0 Safari/537.36" etag="_GIIl6n94ABMJNd683Lo" version="21.5.1" type="device">
  <diagram name="Page-1" id="ofJwJbr9P5VAxHBSLUL4">
    <mxGraphModel dx="1245" dy="801" grid="1" gridSize="10" guides="1" tooltips="1" connect="1" arrows="1" fold="1" page="1" pageScale="1" pageWidth="1100" pageHeight="850" math="0" shadow="0">
      <root>
        <mxCell id="0" />
        <mxCell id="1" parent="0" />
        <mxCell id="RXY-NKyu1k7xqHz5wHZT-7" style="rounded=0;orthogonalLoop=1;jettySize=auto;html=1;exitX=0.01;exitY=0.99;exitDx=0;exitDy=0;exitPerimeter=0;entryX=0.75;entryY=0;entryDx=0;entryDy=0;" edge="1" parent="1" source="RXY-NKyu1k7xqHz5wHZT-2" target="RXY-NKyu1k7xqHz5wHZT-6">
          <mxGeometry relative="1" as="geometry" />
        </mxCell>
        <mxCell id="RXY-NKyu1k7xqHz5wHZT-8" style="rounded=0;orthogonalLoop=1;jettySize=auto;html=1;exitX=0.01;exitY=0.99;exitDx=0;exitDy=0;exitPerimeter=0;entryX=1;entryY=0;entryDx=0;entryDy=0;" edge="1" parent="1" source="RXY-NKyu1k7xqHz5wHZT-2" target="RXY-NKyu1k7xqHz5wHZT-6">
          <mxGeometry relative="1" as="geometry" />
        </mxCell>
        <mxCell id="RXY-NKyu1k7xqHz5wHZT-16" style="rounded=0;orthogonalLoop=1;jettySize=auto;html=1;exitX=1;exitY=0.5;exitDx=0;exitDy=0;exitPerimeter=0;entryX=0.5;entryY=0;entryDx=0;entryDy=0;" edge="1" parent="1" source="RXY-NKyu1k7xqHz5wHZT-2" target="RXY-NKyu1k7xqHz5wHZT-12">
          <mxGeometry relative="1" as="geometry" />
        </mxCell>
        <mxCell id="RXY-NKyu1k7xqHz5wHZT-21" style="edgeStyle=orthogonalEdgeStyle;rounded=0;orthogonalLoop=1;jettySize=auto;html=1;exitX=0;exitY=0.5;exitDx=0;exitDy=0;exitPerimeter=0;entryX=0.25;entryY=0;entryDx=0;entryDy=0;" edge="1" parent="1" source="RXY-NKyu1k7xqHz5wHZT-2" target="RXY-NKyu1k7xqHz5wHZT-6">
          <mxGeometry relative="1" as="geometry" />
        </mxCell>
        <mxCell id="RXY-NKyu1k7xqHz5wHZT-23" style="edgeStyle=orthogonalEdgeStyle;rounded=0;orthogonalLoop=1;jettySize=auto;html=1;exitX=0.5;exitY=1;exitDx=0;exitDy=0;exitPerimeter=0;entryX=0;entryY=0.5;entryDx=0;entryDy=0;" edge="1" parent="1" source="RXY-NKyu1k7xqHz5wHZT-2" target="RXY-NKyu1k7xqHz5wHZT-12">
          <mxGeometry relative="1" as="geometry" />
        </mxCell>
        <mxCell id="RXY-NKyu1k7xqHz5wHZT-2" value="" style="sketch=0;aspect=fixed;pointerEvents=1;shadow=0;dashed=0;html=1;strokeColor=none;labelPosition=center;verticalLabelPosition=bottom;verticalAlign=top;align=center;fillColor=#00188D;shape=mxgraph.mscae.enterprise.android_phone" vertex="1" parent="1">
          <mxGeometry x="240" y="80" width="30" height="50" as="geometry" />
        </mxCell>
        <mxCell id="RXY-NKyu1k7xqHz5wHZT-4" style="edgeStyle=orthogonalEdgeStyle;rounded=0;orthogonalLoop=1;jettySize=auto;html=1;entryX=0.5;entryY=0;entryDx=0;entryDy=0;entryPerimeter=0;exitX=0.5;exitY=0;exitDx=0;exitDy=0;exitPerimeter=0;strokeWidth=2;" edge="1" parent="1" source="RXY-NKyu1k7xqHz5wHZT-3" target="RXY-NKyu1k7xqHz5wHZT-2">
          <mxGeometry relative="1" as="geometry" />
        </mxCell>
        <mxCell id="RXY-NKyu1k7xqHz5wHZT-25" style="edgeStyle=orthogonalEdgeStyle;rounded=0;orthogonalLoop=1;jettySize=auto;html=1;exitX=0;exitY=0.5;exitDx=0;exitDy=0;exitPerimeter=0;entryX=0.5;entryY=0;entryDx=0;entryDy=0;" edge="1" parent="1" source="RXY-NKyu1k7xqHz5wHZT-3" target="RXY-NKyu1k7xqHz5wHZT-13">
          <mxGeometry relative="1" as="geometry" />
        </mxCell>
        <mxCell id="RXY-NKyu1k7xqHz5wHZT-30" style="edgeStyle=orthogonalEdgeStyle;rounded=0;orthogonalLoop=1;jettySize=auto;html=1;exitX=0.5;exitY=1;exitDx=0;exitDy=0;exitPerimeter=0;entryX=1;entryY=0.25;entryDx=0;entryDy=0;" edge="1" parent="1" source="RXY-NKyu1k7xqHz5wHZT-3" target="RXY-NKyu1k7xqHz5wHZT-13">
          <mxGeometry relative="1" as="geometry" />
        </mxCell>
        <mxCell id="RXY-NKyu1k7xqHz5wHZT-32" style="edgeStyle=orthogonalEdgeStyle;rounded=0;orthogonalLoop=1;jettySize=auto;html=1;exitX=1;exitY=0.5;exitDx=0;exitDy=0;exitPerimeter=0;entryX=1;entryY=0.75;entryDx=0;entryDy=0;" edge="1" parent="1" source="RXY-NKyu1k7xqHz5wHZT-3" target="RXY-NKyu1k7xqHz5wHZT-13">
          <mxGeometry relative="1" as="geometry">
            <Array as="points">
              <mxPoint x="920" y="105" />
              <mxPoint x="920" y="285" />
            </Array>
          </mxGeometry>
        </mxCell>
        <mxCell id="RXY-NKyu1k7xqHz5wHZT-3" value="" style="sketch=0;aspect=fixed;pointerEvents=1;shadow=0;dashed=0;html=1;strokeColor=#005700;labelPosition=center;verticalLabelPosition=bottom;verticalAlign=top;align=center;fillColor=#008a00;shape=mxgraph.mscae.enterprise.android_phone;fontColor=#ffffff;" vertex="1" parent="1">
          <mxGeometry x="840" y="80" width="30" height="50" as="geometry" />
        </mxCell>
        <mxCell id="RXY-NKyu1k7xqHz5wHZT-5" value="B2 - expose Gateway Endpoint" style="text;html=1;align=center;verticalAlign=middle;resizable=0;points=[];autosize=1;strokeColor=none;fillColor=none;" vertex="1" parent="1">
          <mxGeometry x="445" y="30" width="190" height="30" as="geometry" />
        </mxCell>
        <mxCell id="RXY-NKyu1k7xqHz5wHZT-6" value="Data Service" style="shape=process;whiteSpace=wrap;html=1;backgroundOutline=1;" vertex="1" parent="1">
          <mxGeometry x="40" y="280" width="120" height="60" as="geometry" />
        </mxCell>
        <mxCell id="RXY-NKyu1k7xqHz5wHZT-9" value="A2 - store" style="text;html=1;align=center;verticalAlign=middle;resizable=0;points=[];autosize=1;strokeColor=none;fillColor=none;" vertex="1" parent="1">
          <mxGeometry x="105" y="198" width="80" height="30" as="geometry" />
        </mxCell>
        <mxCell id="RXY-NKyu1k7xqHz5wHZT-10" value="A3 - load" style="text;html=1;align=center;verticalAlign=middle;resizable=0;points=[];autosize=1;strokeColor=none;fillColor=none;" vertex="1" parent="1">
          <mxGeometry x="160" y="250" width="70" height="30" as="geometry" />
        </mxCell>
        <mxCell id="RXY-NKyu1k7xqHz5wHZT-11" value="Data Service" style="shape=process;whiteSpace=wrap;html=1;backgroundOutline=1;" vertex="1" parent="1">
          <mxGeometry x="50" y="288" width="120" height="60" as="geometry" />
        </mxCell>
        <mxCell id="RXY-NKyu1k7xqHz5wHZT-12" value="Proxy Service" style="shape=process;whiteSpace=wrap;html=1;backgroundOutline=1;" vertex="1" parent="1">
          <mxGeometry x="280" y="240" width="120" height="60" as="geometry" />
        </mxCell>
        <mxCell id="RXY-NKyu1k7xqHz5wHZT-29" style="rounded=0;orthogonalLoop=1;jettySize=auto;html=1;exitX=0.75;exitY=0;exitDx=0;exitDy=0;entryX=0.01;entryY=0.99;entryDx=0;entryDy=0;entryPerimeter=0;dashed=1;" edge="1" parent="1" source="RXY-NKyu1k7xqHz5wHZT-13" target="RXY-NKyu1k7xqHz5wHZT-3">
          <mxGeometry relative="1" as="geometry" />
        </mxCell>
        <mxCell id="RXY-NKyu1k7xqHz5wHZT-13" value="Gateway Service" style="shape=process;whiteSpace=wrap;html=1;backgroundOutline=1;" vertex="1" parent="1">
          <mxGeometry x="640" y="240" width="120" height="60" as="geometry" />
        </mxCell>
        <mxCell id="RXY-NKyu1k7xqHz5wHZT-34" style="edgeStyle=orthogonalEdgeStyle;rounded=0;orthogonalLoop=1;jettySize=auto;html=1;exitX=1;exitY=0.5;exitDx=0;exitDy=0;entryX=0;entryY=0.5;entryDx=0;entryDy=0;" edge="1" parent="1" source="RXY-NKyu1k7xqHz5wHZT-14" target="RXY-NKyu1k7xqHz5wHZT-15">
          <mxGeometry relative="1" as="geometry" />
        </mxCell>
        <mxCell id="RXY-NKyu1k7xqHz5wHZT-14" value="Proxy Service" style="shape=process;whiteSpace=wrap;html=1;backgroundOutline=1;" vertex="1" parent="1">
          <mxGeometry x="290" y="250" width="120" height="60" as="geometry" />
        </mxCell>
        <mxCell id="RXY-NKyu1k7xqHz5wHZT-15" value="Gateway Service" style="shape=process;whiteSpace=wrap;html=1;backgroundOutline=1;" vertex="1" parent="1">
          <mxGeometry x="635" y="250" width="120" height="60" as="geometry" />
        </mxCell>
        <mxCell id="RXY-NKyu1k7xqHz5wHZT-17" value="C2 - post message" style="text;html=1;align=center;verticalAlign=middle;resizable=0;points=[];autosize=1;strokeColor=none;fillColor=none;" vertex="1" parent="1">
          <mxGeometry x="300" y="150" width="120" height="30" as="geometry" />
        </mxCell>
        <mxCell id="RXY-NKyu1k7xqHz5wHZT-22" value="A1 - subscribe" style="text;html=1;align=center;verticalAlign=middle;resizable=0;points=[];autosize=1;strokeColor=none;fillColor=none;" vertex="1" parent="1">
          <mxGeometry x="95" y="80" width="100" height="30" as="geometry" />
        </mxCell>
        <mxCell id="RXY-NKyu1k7xqHz5wHZT-24" value="C1 - subscribe" style="text;html=1;align=center;verticalAlign=middle;resizable=0;points=[];autosize=1;strokeColor=none;fillColor=none;" vertex="1" parent="1">
          <mxGeometry x="220" y="188" width="100" height="30" as="geometry" />
        </mxCell>
        <mxCell id="RXY-NKyu1k7xqHz5wHZT-26" value="B1 - subscribe" style="text;html=1;align=center;verticalAlign=middle;resizable=0;points=[];autosize=1;strokeColor=none;fillColor=none;" vertex="1" parent="1">
          <mxGeometry x="698" y="82" width="100" height="30" as="geometry" />
        </mxCell>
        <mxCell id="RXY-NKyu1k7xqHz5wHZT-28" value="B3 - notify" style="text;html=1;align=center;verticalAlign=middle;resizable=0;points=[];autosize=1;strokeColor=none;fillColor=none;" vertex="1" parent="1">
          <mxGeometry x="720" y="158" width="80" height="30" as="geometry" />
        </mxCell>
        <mxCell id="RXY-NKyu1k7xqHz5wHZT-31" value="B4 - read messages" style="text;html=1;align=center;verticalAlign=middle;resizable=0;points=[];autosize=1;strokeColor=none;fillColor=none;" vertex="1" parent="1">
          <mxGeometry x="770" y="228" width="130" height="30" as="geometry" />
        </mxCell>
        <mxCell id="RXY-NKyu1k7xqHz5wHZT-33" value="B5 - delete messages" style="text;html=1;align=center;verticalAlign=middle;resizable=0;points=[];autosize=1;strokeColor=none;fillColor=none;" vertex="1" parent="1">
          <mxGeometry x="775" y="258" width="140" height="30" as="geometry" />
        </mxCell>
        <mxCell id="RXY-NKyu1k7xqHz5wHZT-35" value="C3 - Forward" style="text;html=1;align=center;verticalAlign=middle;resizable=0;points=[];autosize=1;strokeColor=none;fillColor=none;" vertex="1" parent="1">
          <mxGeometry x="470" y="255" width="90" height="30" as="geometry" />
        </mxCell>
        <mxCell id="RXY-NKyu1k7xqHz5wHZT-36" value="" style="ellipse;whiteSpace=wrap;html=1;fillColor=none;fontColor=#ffffff;strokeColor=#005700;" vertex="1" parent="1">
          <mxGeometry x="400" y="220" width="260" height="110" as="geometry" />
        </mxCell>
        <mxCell id="RXY-NKyu1k7xqHz5wHZT-37" value="Permissionless Messaging Protocol" style="text;html=1;align=center;verticalAlign=middle;resizable=0;points=[];autosize=1;strokeColor=none;fillColor=none;" vertex="1" parent="1">
          <mxGeometry x="420" y="330" width="210" height="30" as="geometry" />
        </mxCell>
      </root>
    </mxGraphModel>
  </diagram>
</mxfile>
